<svg id="Capa_1" enable-background="new 0 0 512 512" height="512" viewBox="0 0 512 512" width="512" xmlns="http://www.w3.org/2000/svg"><g><path d="m468.52 131.251h36.269c3.983 0 7.211-3.229 7.211-7.211v-116.829c0-3.982-3.229-7.211-7.211-7.211h-150.675l-7.287 5.151h-25.755l-8.165-5.151h-35.273l-6.009 5.151h-27.815l-7.383-5.151h-37.334l-8.166 5.151h-24.381l-8.66-5.151h-150.675c-3.982 0-7.211 3.229-7.211 7.211v116.829c0 3.983 3.229 7.211 7.211 7.211h33.996c11.379 0 20.604 9.225 20.604 20.604 0 11.379-9.225 20.604-20.604 20.604h-33.996c-3.983 0-7.211 3.229-7.211 7.211v55.727l5.151 5.838v29.875l-5.151 5.494v54.857c0 3.983 3.229 7.211 7.211 7.211h33.502c11.172 0 20.687 8.687 21.084 19.852.417 11.722-8.962 21.355-20.59 21.355h-33.996c-3.983 0-7.211 3.229-7.211 7.211v117.698c0 3.983 3.229 7.212 7.211 7.212h150.674l6.257-5.151h28.845l6.106 5.151h37.334l7.726-5.151h26.441l7.04 5.151h35.273l7.479-5.151h27.128l6.6 5.151h150.674c3.983 0 7.211-3.229 7.211-7.211v-117.698c0-3.983-3.229-7.211-7.211-7.211h-35.775c-11.172 0-20.687-8.687-21.084-19.852-.417-11.722 8.962-21.355 20.59-21.355h36.269c3.983 0 7.211-3.229 7.211-7.211v-54.857l-5.151-6.181v-28.845l5.151-6.181v-55.727c0-3.983-3.229-7.211-7.211-7.211h-36.268c-11.379 0-20.604-9.225-20.604-20.604 0-11.381 9.225-20.605 20.604-20.605z" fill="#b3e59f"/><g><g><g><path d="m178.489 124.652c-4.267 0-7.726-3.459-7.726-7.726v-25.755c0-4.267 3.459-7.726 7.726-7.726s7.726 3.459 7.726 7.726v25.755c0 4.267-3.459 7.726-7.726 7.726z" fill="#548eb5"/></g><g><path d="m256 124.652c-4.267 0-7.726-3.459-7.726-7.726v-25.755c0-4.267 3.459-7.726 7.726-7.726s7.726 3.459 7.726 7.726v25.755c0 4.267-3.459 7.726-7.726 7.726z" fill="#548eb5"/></g><g><path d="m333.511 124.652c-4.267 0-7.726-3.459-7.726-7.726v-25.755c0-4.267 3.459-7.726 7.726-7.726s7.726 3.459 7.726 7.726v25.755c0 4.267-3.459 7.726-7.726 7.726z" fill="#548eb5"/></g><g><g><path d="m178.489 428.555c-4.267 0-7.726-3.459-7.726-7.726v-25.755c0-4.267 3.459-7.726 7.726-7.726s7.726 3.459 7.726 7.726v25.755c0 4.267-3.459 7.726-7.726 7.726z" fill="#548eb5"/></g><g><path d="m256 428.555c-4.267 0-7.726-3.459-7.726-7.726v-25.755c0-4.267 3.459-7.726 7.726-7.726s7.726 3.459 7.726 7.726v25.755c0 4.267-3.459 7.726-7.726 7.726z" fill="#548eb5"/></g><g><path d="m333.511 428.555c-4.267 0-7.726-3.459-7.726-7.726v-25.755c0-4.267 3.459-7.726 7.726-7.726s7.726 3.459 7.726 7.726v25.755c0 4.267-3.459 7.726-7.726 7.726z" fill="#548eb5"/></g></g><g><g><path d="m420.829 341.237h-25.755c-4.267 0-7.726-3.459-7.726-7.726s3.459-7.726 7.726-7.726h25.755c4.267 0 7.726 3.459 7.726 7.726s-3.459 7.726-7.726 7.726z" fill="#548eb5"/></g><g><path d="m420.829 263.726h-25.755c-4.267 0-7.726-3.459-7.726-7.726s3.459-7.726 7.726-7.726h25.755c4.267 0 7.726 3.459 7.726 7.726s-3.459 7.726-7.726 7.726z" fill="#548eb5"/></g><g><path d="m420.829 186.215h-25.755c-4.267 0-7.726-3.459-7.726-7.726s3.459-7.726 7.726-7.726h25.755c4.267 0 7.726 3.459 7.726 7.726s-3.459 7.726-7.726 7.726z" fill="#548eb5"/></g></g><g><g><path d="m116.926 341.237h-25.755c-4.267 0-7.726-3.459-7.726-7.726s3.459-7.726 7.726-7.726h25.755c4.267 0 7.726 3.459 7.726 7.726s-3.459 7.726-7.726 7.726z" fill="#548eb5"/></g><g><path d="m116.926 263.726h-25.755c-4.267 0-7.726-3.459-7.726-7.726s3.459-7.726 7.726-7.726h25.755c4.267 0 7.726 3.459 7.726 7.726s-3.459 7.726-7.726 7.726z" fill="#548eb5"/></g><g><path d="m116.926 186.215h-25.755c-4.267 0-7.726-3.459-7.726-7.726s3.459-7.726 7.726-7.726h25.755c4.267 0 7.726 3.459 7.726 7.726s-3.459 7.726-7.726 7.726z" fill="#548eb5"/></g></g></g></g><path d="m7.211 0h23.694v131.255h-23.694c-3.983 0-7.211-3.229-7.211-7.211v-116.833c0-3.982 3.229-7.211 7.211-7.211z" fill="#95d6a4"/><path d="m7.211 172.463h23.694v166.209h-23.694c-3.983 0-7.211-3.229-7.211-7.211v-151.787c0-3.983 3.229-7.211 7.211-7.211z" fill="#95d6a4"/><path d="m7.211 379.879h23.694v132.121h-23.694c-3.982 0-7.211-3.229-7.211-7.211v-117.698c0-3.983 3.229-7.212 7.211-7.212z" fill="#95d6a4"/><path d="m92.716 359.276c0 11.383-9.22 20.604-20.604 20.604h-30.905c11.383 0 20.604-9.22 20.604-20.604s-9.22-20.604-20.604-20.604h30.905c11.384 0 20.604 9.22 20.604 20.604z" fill="#95d6a4"/><path d="m55.774 166.426c3.729-3.729 6.037-8.88 6.037-14.567 0-11.383-9.22-20.604-20.604-20.604h30.905c11.383 0 20.604 9.22 20.604 20.604 0 5.687-2.308 10.838-6.037 14.567s-8.88 6.037-14.567 6.037h-30.905c5.687 0 10.838-2.308 14.567-6.037z" fill="#95d6a4"/><path d="m116.926 388.074v-264.148c0-3.866 3.134-7 7-7h264.149c3.866 0 7 3.134 7 7v264.149c0 3.866-3.134 7-7 7h-264.149c-3.866-.001-7-3.135-7-7.001z" fill="#eefaff"/><path d="m147.831 116.926v278.149h-23.905c-3.866 0-7-3.134-7-7v-264.149c0-3.866 3.134-7 7-7z" fill="#dff1f7"/><path d="m158.133 346.867v-181.734c0-3.866 3.134-7 7-7h181.734c3.866 0 7 3.134 7 7v181.734c0 3.866-3.134 7-7 7h-181.734c-3.866 0-7-3.134-7-7z" fill="#548eb5"/><path d="m189.038 158.133v195.734h-23.905c-3.866 0-7-3.134-7-7v-181.734c0-3.866 3.134-7 7-7z" fill="#447d99"/><g fill="#eefaff"><g><circle cx="68.167" cy="63.372" r="20.604"/><circle cx="443.833" cy="63.372" r="20.604"/></g><g><circle cx="68.167" cy="448.628" r="20.604"/><circle cx="443.833" cy="448.628" r="20.604"/></g></g><g fill="#fdf172"><path d="m257.634 61.811h-1.207c-11.046 0-20-8.954-20-20v-41.811h41.207v41.811c0 11.046-8.954 20-20 20z"/><path d="m179.093 61.811h-1.207c-11.046 0-20-8.954-20-20v-41.811h41.207v41.811c0 11.046-8.954 20-20 20z"/><path d="m334.114 61.811h-1.207c-11.046 0-20-8.954-20-20v-41.811h41.207v41.811c0 11.046-8.954 20-20 20z"/><path d="m257.634 450.189h-1.207c-11.046 0-20 8.954-20 20v41.811h41.207v-41.811c0-11.046-8.954-20-20-20z"/><path d="m61.811 255.396v1.207c0 11.046-8.954 20-20 20h-41.811v-41.207h41.811c11.046 0 20 8.955 20 20z"/><path d="m450.189 255.396v1.207c0 11.046 8.954 20 20 20h41.811v-41.207h-41.811c-11.046 0-20 8.955-20 20z"/><path d="m179.093 450.189h-1.207c-11.046 0-20 8.954-20 20v41.811h41.207v-41.811c0-11.046-8.954-20-20-20z"/><path d="m334.114 450.189h-1.207c-11.046 0-20 8.954-20 20v41.811h41.207v-41.811c0-11.046-8.954-20-20-20z"/></g></g></svg>